<svg xmlns="http://www.w3.org/2000/svg" viewBox="0 0 20 20"><path d="M6.398 14.775c.481-.174.928-.4 1.337-.683.41-.282.797-.608 1.16-.982.363-.373.736-.759 1.118-1.159.346.4.71.786 1.092 1.159.382.374.787.7 1.214.982.428.282.887.509 1.379.683.49.173 1.017.259 1.582.259.727 0 1.387-.132 1.977-.396a4.175 4.175 0 0 0 1.487-1.092 5.03 5.03 0 0 0 .928-1.623A5.911 5.911 0 0 0 20 9.932c0-.71-.109-1.364-.328-1.964a4.735 4.735 0 0 0-.928-1.569 4.234 4.234 0 0 0-1.473-1.05c-.583-.256-1.238-.383-1.966-.383-.581 0-1.123.092-1.623.273-.5.182-.964.423-1.391.723-.428.3-.828.65-1.201 1.051-.372.399-.732.81-1.078 1.228a25.66 25.66 0 0 0-1.104-1.242 8.026 8.026 0 0 0-1.201-1.037 5.966 5.966 0 0 0-1.391-.723 4.796 4.796 0 0 0-1.65-.273c-.728 0-1.385.133-1.965.396a4.358 4.358 0 0 0-1.474 1.064 4.54 4.54 0 0 0-.914 1.583A6.05 6.05 0 0 0 0 9.985c0 .71.108 1.374.326 1.992.219.619.537 1.15.955 1.597.419.446.919.801 1.5 1.064.584.264 1.246.396 1.993.396.6 0 1.142-.086 1.624-.259zM3.164 11.65c-.383-.418-.573-.955-.573-1.609 0-.6.186-1.142.561-1.624.372-.48.876-.723 1.515-.723.345 0 .689.078 1.035.232.346.154.678.35.997.587.317.237.622.496.912.777.291.283.546.542.765.778-.219.255-.464.515-.737.776a6.18 6.18 0 0 1-.872.71c-.311.21-.637.382-.983.519a2.79 2.79 0 0 1-1.036.205c-.675 0-1.202-.209-1.584-.628zm11.092.438a4.655 4.655 0 0 1-.968-.505 6.23 6.23 0 0 1-.874-.709 12.192 12.192 0 0 1-.764-.806c.218-.236.463-.495.736-.778.273-.281.56-.54.859-.776.3-.237.619-.433.955-.587a2.505 2.505 0 0 1 1.051-.232c.673 0 1.204.227 1.596.683.392.454.587 1 .587 1.638 0 .637-.183 1.172-.546 1.608-.364.438-.882.655-1.555.655a3.047 3.047 0 0 1-1.077-.191z"/></svg>