<svg xmlns="http://www.w3.org/2000/svg" viewBox="0 0 20 20"><path d="M8.349 9.257a2.55 2.55 0 0 0-.497-.293 1.257 1.257 0 0 0-.519-.117.907.907 0 0 0-.757.361 1.29 1.29 0 0 0-.281.812c0 .327.096.596.287.805s.455.314.791.314c.173 0 .345-.035.519-.104.173-.068.337-.154.491-.259.155-.104.301-.222.437-.354.137-.131.259-.262.368-.389a12.19 12.19 0 0 0-.382-.387 4.52 4.52 0 0 0-.457-.389zm4.278-.41a1.23 1.23 0 0 0-.525.117 2.309 2.309 0 0 0-.478.293c-.15.118-.293.248-.43.389-.137.141-.261.271-.368.389.118.137.245.272.382.402.137.133.281.25.438.355.153.104.314.188.483.252.168.064.349.096.539.096.337 0 .595-.109.777-.328a1.21 1.21 0 0 0 .272-.805c0-.318-.099-.592-.293-.818-.195-.228-.461-.342-.797-.342zM10 .4C4.698.4.4 4.698.4 10s4.298 9.6 9.6 9.6 9.6-4.298 9.6-9.6S15.302.4 10 .4zm4.835 10.562c-.108.309-.263.58-.463.811-.2.233-.448.414-.743.546a2.4 2.4 0 0 1-.989.197c-.282 0-.546-.043-.791-.129a3.097 3.097 0 0 1-.689-.342 4.17 4.17 0 0 1-.608-.49c-.19-.188-.372-.38-.546-.58-.19.2-.377.393-.559.58a3.86 3.86 0 0 1-.581.49 2.864 2.864 0 0 1-.668.342c-.24.086-.511.129-.812.129a2.39 2.39 0 0 1-.996-.197 2.328 2.328 0 0 1-.75-.532 2.266 2.266 0 0 1-.478-.798A3.022 3.022 0 0 1 5 9.994c0-.355.052-.684.157-.989.105-.305.258-.568.457-.792.2-.224.445-.399.737-.532a2.36 2.36 0 0 1 .982-.197c.3 0 .575.045.825.137.25.09.481.211.695.361.215.149.415.322.602.518s.37.402.552.621c.174-.209.354-.414.539-.613.188-.201.387-.376.602-.525.213-.15.445-.271.695-.361.25-.092.521-.137.81-.137.365 0 .692.062.984.191.291.127.536.301.736.524.2.224.354.483.463.784.11.301.164.627.164.982 0 .356-.054.688-.165.996z"/></svg>