<svg xmlns="http://www.w3.org/2000/svg" viewBox="0 0 20 20"><path d="M19.799 5.165l-2.375-1.83a1.997 1.997 0 0 0-.521-.237A2.035 2.035 0 0 0 16.336 3H9.5l.801 5h6.035c.164 0 .369-.037.566-.098s.387-.145.521-.236l2.375-1.832c.135-.091.202-.212.202-.334s-.067-.243-.201-.335zM8.5 1h-1a.5.5 0 0 0-.5.5V5H3.664c-.166 0-.37.037-.567.099-.198.06-.387.143-.521.236L.201 7.165C.066 7.256 0 7.378 0 7.5c0 .121.066.242.201.335l2.375 1.832c.134.091.323.175.521.235.197.061.401.098.567.098H7v8.5a.5.5 0 0 0 .5.5h1a.5.5 0 0 0 .5-.5v-17a.5.5 0 0 0-.5-.5z"/></svg>