<svg xmlns="http://www.w3.org/2000/svg" viewBox="0 0 20 20"><path d="M12.496 17.414c-.394-1.096-1.805-4.775-2.39-6.297-1.103.737-2.334 1.435-3.512 1.928-.366 1.28-1.094 3.709-1.446 4.033-.604.557-.832.485-.925-.279-.093-.764-.485-3.236-.485-3.236s-2.162-1.219-2.84-1.568-.667-.591.057-.974c.422-.223 2.927-.085 4.242.005.861-.951 1.931-1.882 2.993-2.679-1.215-1.076-4.15-3.675-5.034-4.424-.776-.658.079-.797.079-.797.39-.07 1.222-.132 1.628-.009 2.524.763 6.442 2.068 7.363 2.376l1.162-.821c4.702-3.33 5.887-2.593 6.111-2.27s.503 1.701-4.199 5.032l-1.16.823c-.029.98-.157 5.151-.311 7.811-.025.428-.367 1.198-.565 1.544-.001 0-.423.765-.768-.198z"/></svg>