<svg xmlns="http://www.w3.org/2000/svg" viewBox="0 0 20 20"><path fill-rule="evenodd" clip-rule="evenodd" d="M17.564 13.862c-.413.916-.612 1.325-1.144 2.135-.742 1.13-1.79 2.538-3.087 2.55-1.152.01-1.448-.75-3.013-.741-1.564.008-1.89.755-3.043.744-1.297-.012-2.29-1.283-3.033-2.414-2.077-3.16-2.294-6.87-1.013-8.843.91-1.401 2.347-2.221 3.697-2.221 1.375 0 2.24.754 3.376.754 1.103 0 1.775-.756 3.365-.756 1.2 0 2.474.655 3.381 1.785-2.972 1.629-2.49 5.873.514 7.007zM12.463 3.808c.577-.742 1.016-1.788.857-2.858-.944.065-2.047.665-2.692 1.448-.584.71-1.067 1.763-.88 2.787 1.03.031 2.096-.584 2.715-1.377z"/></svg>