<svg xmlns="http://www.w3.org/2000/svg" viewBox="0 0 20 20"><path d="M10 1a4 4 0 0 0-4 4h8a4 4 0 0 0-4-4zm9 9h-3V7.503c0-.028-.007-.053-.008-.08l2.215-2.216a1 1 0 1 0-1.414-1.414l-2.215 2.215c-.028-.001-.053-.008-.08-.008H5.502c-.028 0-.053.007-.08.008L3.206 3.793a1 1 0 1 0-1.414 1.414l2.215 2.215c0 .028-.007.053-.007.081V10H1a1 1 0 0 0 0 2h3c0 .78.156 1.52.427 2.204-.044.031-.094.05-.134.089L1.464 17.12a1 1 0 0 0 1.415 1.415l2.601-2.602A5.995 5.995 0 0 0 9 17.91V8h2v9.91a5.995 5.995 0 0 0 3.52-1.976l2.601 2.602a1 1 0 0 0 1.415-1.415l-2.829-2.828c-.04-.04-.09-.058-.134-.09A5.956 5.956 0 0 0 16 12h3a1 1 0 0 0 0-2z"/></svg>