<svg xmlns="http://www.w3.org/2000/svg" viewBox="0 0 20 20"><path d="M9.584 6.036c1.952 0 2.591-1.381 1.839-2.843-.871-1.693 1.895-3.155.521-3.155-1.301 0-3.736 1.418-4.19 3.183-.339 1.324.296 2.815 1.83 2.815zm5.212 8.951l-.444-.383a1.355 1.355 0 0 0-1.735 0l-.442.382a3.326 3.326 0 0 1-2.174.801 3.325 3.325 0 0 1-2.173-.8l-.444-.384a1.353 1.353 0 0 0-1.734.001l-.444.383c-1.193 1.028-2.967 1.056-4.204.1V19a1 1 0 0 0 1 1h16a1 1 0 0 0 1-1v-3.912c-1.237.954-3.011.929-4.206-.101zM10 7c-7.574 0-9 3.361-9 5v.469l1.164 1.003a1.355 1.355 0 0 0 1.735 0l.444-.383a3.353 3.353 0 0 1 4.345 0l.444.384c.484.417 1.245.42 1.735-.001l.442-.382a3.352 3.352 0 0 1 4.346-.001l.444.383c.487.421 1.25.417 1.735 0L19 12.469V12c0-1.639-1.426-5-9-5z"/></svg>