<svg xmlns="http://www.w3.org/2000/svg" viewBox="0 0 20 20"><path d="M16.8 3.2C15 1.3 12.7.4 10 .4s-4.9.9-6.8 2.8C1.3 5.1.4 7.4.4 10c0 2.6.9 4.9 2.8 6.8 1.9 1.9 4.1 2.8 6.8 2.8 2.6 0 4.9-1 6.9-2.9 1.8-1.8 2.7-4.1 2.7-6.7 0-2.7-.9-5-2.8-6.8zm-1.2 12.3c-1.6 1.6-3.5 2.4-5.6 2.4-2.1 0-4-.8-5.6-2.3C2.9 14 2.1 12.1 2.1 10c0-2.1.8-4 2.4-5.6C6 2.9 7.8 2.1 10 2.1s4 .8 5.6 2.3c1.5 1.5 2.3 3.4 2.3 5.6 0 2.2-.8 4-2.3 5.5zm.7-5.3l-1.9-.8V7L8.5 4.6 5.9 5.7v2.7l-2.3 1v2.5L6.1 13l2.5-1h.1l5 2.1h.2l2.3-1 .2-.1v-2.7l-.1-.1zm-2.7 3.1l-4.4-1.8V9.8l4.4 1.8v1.7zm.2-2.2l-1.4-.6 1.6-.6 1.4.6-1.6.6zm2.1 1.5l-1.7.7v-1.7l1.7-.7v1.7z"/></svg>