<svg xmlns="http://www.w3.org/2000/svg" viewBox="0 0 20 20"><path d="M9.565 7.421C8.207 5.007 6.754 3.038 6.648 2.893A7.876 7.876 0 0 0 2.311 8.38c.206.004 3.482.043 7.254-.959zm.978 2.64a11 11 0 0 1 .309-.094 26.219 26.219 0 0 0-.637-1.336C6.169 9.843 2.287 9.755 2.15 9.751c-.003.084-.007.166-.007.25 0 2.019.763 3.861 2.016 5.252l-.005-.006s2.15-3.814 6.389-5.186zm-5.372 6.133v-.004c-.058-.045-.12-.086-.178-.135.106.085.178.139.178.139zM8.118 2.372a.546.546 0 0 1-.015.004c.006-.002.014-.002.014-.002l.001-.002zm7.071 1.732A7.83 7.83 0 0 0 10 2.143c-.639 0-1.258.078-1.852.221.12.16 1.595 2.119 2.938 4.584 2.962-1.109 4.081-2.812 4.103-2.844zM10 19.2a9.2 9.2 0 0 1-9.199-9.199A9.199 9.199 0 0 1 10 .8a9.2 9.2 0 0 1 9.2 9.201A9.2 9.2 0 0 1 10 19.2zm1.336-7.914c-4.611 1.607-6.134 4.838-6.165 4.904a7.818 7.818 0 0 0 4.828 1.666 7.83 7.83 0 0 0 3.067-.621c-.116-.689-.573-3.096-1.679-5.967a1.464 1.464 0 0 1-.051.018zm.354-3.166c.184.373.358.754.523 1.139.059.135.114.272.17.406 2.713-.342 5.385.238 5.473.256a7.84 7.84 0 0 0-1.787-4.912c-.018.023-1.279 1.843-4.379 3.111zm1.171 2.785c1.031 2.836 1.449 5.142 1.529 5.611a7.858 7.858 0 0 0 3.367-5.27c-.156-.05-2.356-.747-4.896-.341z"/></svg>