<svg xmlns="http://www.w3.org/2000/svg" viewBox="0 0 20 20"><path d="M9.68 7.85c-.374.094-.607.497-.52.9.717 3.328.873 6.815.452 10.086-.053.41.212.79.592.846a.655.655 0 0 0 .097.007c.341 0 .639-.271.688-.646.444-3.452.28-7.128-.475-10.632-.087-.405-.46-.653-.834-.56zm-1.611 4.223c-.382.038-.663.404-.628.816.17 1.968.125 3.91-.132 5.772-.056.41.206.791.585.852a.612.612 0 0 0 .103.008c.339 0 .636-.267.687-.64.273-1.98.32-4.043.141-6.13-.035-.413-.386-.72-.756-.678zm1.09-6.659c-.784.197-1.45.712-1.876 1.449a3.445 3.445 0 0 0-.379 2.454c.088.41.168.82.237 1.229.068.408.44.677.809.603.378-.075.627-.466.558-.873a30.238 30.238 0 0 0-.25-1.299 1.853 1.853 0 0 1 .205-1.32c.23-.398.589-.676 1.01-.781.872-.22 1.741.37 1.943 1.309.746 3.461.942 6.93.58 10.309-.043.411.23.783.612.83a.647.647 0 0 0 .08.006c.349 0 .649-.282.69-.664.379-3.551.174-7.192-.608-10.82-.375-1.743-1.991-2.834-3.612-2.432zm-2.411.533a.79.79 0 0 0-.114-1.054.661.661 0 0 0-.976.123 5.744 5.744 0 0 0-.34.524 6.095 6.095 0 0 0-.67 4.343c.594 2.757.733 5.588.401 8.19-.052.41.214.788.594.845a.714.714 0 0 0 .096.006c.342 0 .64-.272.688-.647.353-2.78.207-5.8-.425-8.733a4.51 4.51 0 0 1 .746-3.597zm8.362 6.872c-.383.02-.68.372-.66.786a34.322 34.322 0 0 1-.059 4.131c-.032.414.253.775.636.81a.742.742 0 0 0 .057.002c.359 0 .663-.297.692-.69.107-1.422.128-2.878.062-4.327-.019-.414-.354-.723-.728-.712zm-.17-1.035a.649.649 0 0 0 .087-.006c.381-.05.65-.425.604-.836a37.924 37.924 0 0 0-.606-3.663c-.552-2.574-2.75-4.443-5.223-4.443-.391 0-.782.047-1.164.142-.316.08-.625.19-.921.327-.352.165-.514.607-.362.987.153.38.563.555.914.39.219-.102.45-.184.682-.242.278-.07.564-.104.85-.104 1.835 0 3.462 1.38 3.87 3.283.25 1.158.446 2.338.58 3.508.044.38.344.657.69.657zm2.342-5.068a8.344 8.344 0 0 0-2.02-3.913.66.66 0 0 0-.983 0 .8.8 0 0 0-.002 1.067 6.86 6.86 0 0 1 1.651 3.208 38.76 38.76 0 0 1 .861 9.098c-.01.414.292.824.676.824h.019c.375 0 .684-.375.695-.782a40.575 40.575 0 0 0-.897-9.502zM3.39 12.855a.664.664 0 0 0 .102-.008c.38-.06.642-.442.587-.851a25.027 25.027 0 0 0-.332-1.887 7.148 7.148 0 0 1 .785-5.098c.883-1.53 2.267-2.598 3.894-3.006a5.846 5.846 0 0 1 4.193.558c.342.187.76.037.933-.333.173-.37.035-.821-.308-1.007a7.153 7.153 0 0 0-5.13-.68c-1.99.5-3.682 1.805-4.762 3.674a8.742 8.742 0 0 0-.96 6.232c.128.594.233 1.187.311 1.765.05.373.348.64.687.64zM3.597 14h-.023c-.384 0-.684.25-.672.663.027.848.004 1.58-.07 2.39-.037.412.242.778.624.818a.647.647 0 0 0 .069.003.671.671 0 0 0 .69-.625c.08-.875.106-1.723.077-2.637C4.28 14.207 3.97 14 3.597 14z"/></svg>