<svg xmlns="http://www.w3.org/2000/svg" viewBox="0 0 20 20"><path d="M10 .4C4.698.4.4 4.698.4 10s4.298 9.6 9.6 9.6 9.6-4.298 9.6-9.6S15.302.4 10 .4zm-.553 13.721c-.603.293-1.252.324-1.503.324h-.129c-.392 0-2.343-.09-2.343-1.867 0-1.746 2.125-1.883 2.776-1.883h.017c-.376-.502-.298-1.008-.298-1.008a2.34 2.34 0 0 1-.14.004c-.245 0-.718-.039-1.124-.301-.498-.32-.75-.865-.75-1.619 0-2.131 2.327-2.217 2.35-2.219h2.324v.051c0 .26-.467.311-.785.354-.108.016-.325.037-.386.068.589.315.684.809.684 1.545 0 .838-.328 1.281-.676 1.592-.216.193-.385.344-.385.547 0 .199.232.402.502.639.441.389 1.046.918 1.046 1.811 0 .923-.397 1.583-1.18 1.962zM14.5 10H13v1.5h-1V10h-1.5V9H12V7.5h1V9h1.5v1zm-6.277 1.15a2.08 2.08 0 0 0-.157.006 1.918 1.918 0 0 0-1.15.469c-.294.266-.444.602-.423.941.045.711.808 1.127 1.735 1.061.912-.066 1.52-.592 1.476-1.303-.042-.668-.623-1.174-1.481-1.174zm.874-3.865c-.242-.85-.632-1.102-1.238-1.102a.75.75 0 0 0-.194.027c-.263.075-.472.294-.588.62-.119.33-.126.674-.024 1.066.185.701.683 1.209 1.185 1.209a.664.664 0 0 0 .194-.027c.549-.154.893-.992.665-1.793z"/></svg>