<svg xmlns="http://www.w3.org/2000/svg" viewBox="0 0 20 20"><path d="M18.69 12.344l-1.727-1.538c-.5-.445-.5-1.174 0-1.619l1.727-1.539c.5-.445.367-.859-.296-.924l-2.29-.217c-.662-.062-1.02-.633-.791-1.266l1.215-3.383c.228-.635-.051-.865-.619-.514l-2.701 1.67a1.158 1.158 0 0 1-1.631-.426L10.599.842C10.27.254 9.727.252 9.392.834l-.909 1.58c-.337.585-1.108.833-1.713.556l-1.6-.734c-.608-.28-1.073.042-1.037.716l.086 1.615c.037.674-.461 1.367-1.104 1.541l-1.545.414c-.642.174-.76.68-.26 1.125l1.727 1.539c.5.445.5 1.174 0 1.619L1.31 12.344c-.5.445-.368.877.293.957l2.095.254c.661.08 1.029.67.818 1.311l-1.074 3.258c-.211.641.09.889.668.555l2.463-1.426a1.321 1.321 0 0 1 1.729.408L9.324 19.2c.372.559.931.529 1.24-.068l.899-1.733a1.243 1.243 0 0 1 1.648-.543l1.734.867c.598.297 1.057-.01 1.021-.682l-.087-1.617c-.035-.674.461-1.365 1.106-1.539l1.543-.416c.644-.174.762-.68.262-1.125zM11 14H9v-2h2v2zm0-3H9V6h2v5z"/></svg>