<svg xmlns="http://www.w3.org/2000/svg" viewBox="0 0 20 20"><path d="M10.595 5.196l.446 1.371a4.135 4.135 0 0 1 1.441-.795c.59-.192 1.111-.3 1.582-.362l-.43-1.323a9.465 9.465 0 0 0-1.58.368 5.25 5.25 0 0 0-1.459.741zm.927 2.855l.446 1.371a4.135 4.135 0 0 1 1.441-.795c.59-.192 1.111-.3 1.582-.362l-.43-1.323a9.465 9.465 0 0 0-1.58.368 5.21 5.21 0 0 0-1.459.741zm.928 2.854l.446 1.371a4.135 4.135 0 0 1 1.441-.795c.59-.192 1.111-.3 1.582-.362l-.43-1.323a9.465 9.465 0 0 0-1.58.368 5.21 5.21 0 0 0-1.459.741zm-7.062 2.172l.43 1.323a8.745 8.745 0 0 1 1.492-.636 4.141 4.141 0 0 1 1.633-.203l-.446-1.371a5.25 5.25 0 0 0-1.615.257 9.406 9.406 0 0 0-1.494.63zM3.533 7.368l.43 1.323a8.825 8.825 0 0 1 1.492-.636 4.141 4.141 0 0 1 1.633-.203L6.643 6.48a5.263 5.263 0 0 0-1.616.258 9.406 9.406 0 0 0-1.494.63zm.927 2.855l.43 1.323a8.745 8.745 0 0 1 1.492-.636 4.141 4.141 0 0 1 1.633-.203L7.57 9.335a5.25 5.25 0 0 0-1.615.257 9.417 9.417 0 0 0-1.495.631zm6.604-8.813a5.26 5.26 0 0 0-3.053 2.559 5.257 5.257 0 0 0-3.973-.275C1.515 4.514.069 6.321.069 6.321l4.095 12.587c.126.387.646.477.878.143.499-.719 1.46-1.658 3.257-2.242 1.718-.558 2.969.054 3.655.578.272.208.662.06.762-.268.252-.827.907-2.04 2.61-2.593 1.799-.585 3.129-.389 3.956-.1.385.134.75-.242.625-.629L15.819 1.203s-2.232-.612-4.755.207zm-.113 13.846a5.208 5.208 0 0 0-3.141.044c-1.251.406-2.127.949-2.699 1.404L1.866 6.722c.358-.358 1.187-1.042 2.662-1.521 1.389-.451 2.528-.065 3.279.378l3.144 9.677zm6.894-2.689c-.731-.032-1.759.044-3.01.451a5.205 5.205 0 0 0-2.567 1.81L9.124 5.151c.346-.8 1.04-1.782 2.43-2.233 1.474-.479 2.547-.413 3.047-.334l3.244 9.983z"/></svg>