<svg xmlns="http://www.w3.org/2000/svg" viewBox="0 0 20 20"><path d="M14.69 2.661c-1.894-1.379-3.242-1.349-3.754-1.266a.538.538 0 0 0-.35.223l-4.62 6.374-2.263 3.123a2.447 2.447 0 0 0-.462 1.307l-.296 5.624a.56.56 0 0 0 .76.553l5.256-2.01c.443-.17.828-.465 1.106-.849l1.844-2.545 5.036-6.949a.56.56 0 0 0 .1-.423c-.084-.526-.487-1.802-2.357-3.162zM8.977 15.465l-2.043.789a.19.19 0 0 1-.221-.062 5.145 5.145 0 0 0-1.075-1.03 5.217 5.217 0 0 0-1.31-.706.192.192 0 0 1-.126-.192l.122-2.186.549-.755s1.229-.169 2.833.998c1.602 1.166 1.821 2.388 1.821 2.388l-.55.756z"/></svg>