<svg xmlns="http://www.w3.org/2000/svg" viewBox="0 0 20 20"><path d="M4.774 15.287l-2.105 3.25.224 1.063 1.06-.227 2.104-3.248a8.352 8.352 0 0 1-1.283-.838zm8.912-1.135c.014-.029.023-.061.036-.092.053-.117.1-.234.138-.357.006-.022.009-.044.016-.064a4.48 4.48 0 0 0 .098-.408v-.021c.195-1.169-.145-2.473-.923-3.651l1.11-1.714c1.279.163 2.385-.159 2.917-.982.923-1.423-.2-3.792-2.505-5.293C12.266.068 9.65.005 8.729 1.426c-.534.824-.378 1.967.293 3.073L7.91 6.213c-1.389-.233-2.716-.016-3.703.64-.006.002-.013.004-.017.008a3.735 3.735 0 0 0-.332.254c-.017.014-.037.027-.051.041a3.024 3.024 0 0 0-.271.272c-.02.024-.048.045-.067.07a3.102 3.102 0 0 0-.29.385c-1.384 2.133-.203 5.361 2.633 7.209 2.838 1.848 6.26 1.614 7.641-.519.087-.135.167-.276.233-.421zm-.815-9.958c-.887-.577-1.32-1.487-.965-2.036.354-.547 1.361-.522 2.246.055.889.577 1.318 1.489.965 2.036-.353.547-1.358.522-2.246-.055z"/></svg>