<svg xmlns="http://www.w3.org/2000/svg" viewBox="0 0 20 20"><path d="M10 .4C4.698.4.4 4.698.4 10s4.298 9.6 9.6 9.6 9.6-4.298 9.6-9.6S15.302.4 10 .4zm4.008 11.92c-.184.096-.47-.122-.737-.52-.105.435-.369.828-.743 1.144.394.144.65.38.65.65 0 .442-.695.799-1.553.799-.773 0-1.415-.291-1.533-.672h-.184c-.12.38-.76.672-1.533.672-.857 0-1.552-.357-1.552-.8 0-.268.256-.505.65-.65-.375-.315-.638-.708-.745-1.143-.267.398-.553.616-.735.52-.265-.136-.213-.88.117-1.654.26-.61.612-1.06.879-1.158a1.18 1.18 0 0 1 .172-.748l-.002-.041c0-.11.026-.21.07-.298.068-1.586 1.1-2.845 2.771-2.845 1.67 0 2.703 1.259 2.771 2.845.044.088.07.188.07.298 0 .012 0 .027-.003.041a1.169 1.169 0 0 1 .173.748c.267.098.62.547.878 1.158.331.775.383 1.518.119 1.655z"/></svg>