<svg xmlns="http://www.w3.org/2000/svg" viewBox="0 0 20 20"><path d="M10 .4C4.698.4.4 4.698.4 10s4.298 9.6 9.6 9.6 9.6-4.298 9.6-9.6S15.302.4 10 .4zm3.215 13.793a1.54 1.54 0 0 1-1.055.42c-.48 0-.867-.18-1.153-.532-.198-.244-.308-.496-.466-.936l-.078-.219c-.183-.498-.344-.75-.577-.879-.07.271-.149.525-.234.756-.445 1.216-1.077 1.832-1.88 1.832-.45 0-.848-.185-1.12-.522-.331-.413-.438-.996-.299-1.642l.03-.14 1.016.223-.03.138c-.072.332-.043.6.082.755a.393.393 0 0 0 .322.143c.4 0 .795-.639 1.094-1.76a2.932 2.932 0 0 1-.896-.49l-.11-.088.648-.818.11.089c.142.113.3.206.471.276.087-.498.156-1.046.207-1.63l.013-.142 1.035.091-.012.141a20.837 20.837 0 0 1-.212 1.683 2.28 2.28 0 0 0 1.727-1.087 2.277 2.277 0 0 0-.56-2.974c-.393-.31-.97-.486-1.507-.459-.672.028-1.238.33-1.682.91-.536.695-.592 1.738-.135 2.478l.075.12-.883.553-.075-.12c-.689-1.116-.609-2.627.196-3.672.631-.822 1.482-1.273 2.46-1.314.8-.031 1.603.217 2.192.68a3.315 3.315 0 0 1 .811 4.334 3.276 3.276 0 0 1-1.669 1.393c.13.198.24.434.367.78l.081.226c.256.714.373.778.641.778a.512.512 0 0 0 .338-.132c.161-.154.208-.45.141-.882l-.022-.14 1.027-.162.022.14c.122.78-.035 1.402-.451 1.801z"/></svg>