<svg xmlns="http://www.w3.org/2000/svg" viewBox="0 0 20 20"><path d="M5.673 19c-.877 0-1.65-.36-2.176-1.014-.645-.803-.851-1.936-.581-3.19l.058-.27 1.973.43-.058.27c-.14.645-.083 1.165.158 1.465.148.184.36.278.626.278.776 0 1.545-1.24 2.126-3.418a5.699 5.699 0 0 1-1.74-.952l-.214-.171 1.258-1.59.215.173c.274.22.58.4.914.537.169-.969.304-2.032.403-3.169l.024-.274 2.011.177-.024.275a40.469 40.469 0 0 1-.41 3.268c1.387-.14 2.65-.927 3.354-2.111 1.152-1.941.694-4.37-1.09-5.778-.761-.602-1.88-.943-2.926-.891-1.304.054-2.404.642-3.268 1.766-1.04 1.351-1.15 3.377-.26 4.816l.144.234-1.715 1.073-.145-.235c-1.339-2.167-1.183-5.101.38-7.132C5.935 1.97 7.588 1.095 9.49 1.015c1.552-.06 3.114.42 4.257 1.322 2.594 2.047 3.257 5.587 1.577 8.418a6.365 6.365 0 0 1-3.243 2.707c.252.384.466.843.712 1.514l.158.44c.497 1.387.724 1.51 1.245 1.51.236 0 .494-.1.657-.256.313-.3.405-.875.274-1.712l-.043-.273 1.995-.315.043.273c.236 1.513-.068 2.723-.877 3.499a2.989 2.989 0 0 1-2.049.815c-.93 0-1.684-.348-2.24-1.033-.384-.474-.598-.964-.904-1.818l-.153-.426c-.355-.968-.668-1.457-1.12-1.707a16.26 16.26 0 0 1-.454 1.468C8.46 17.803 7.232 19 5.673 19z"/></svg>