<svg xmlns="http://www.w3.org/2000/svg" viewBox="0 0 20 20"><path d="M18.671 12.037a9.347 9.347 0 0 0 .203-1.938c0-4.986-3.93-9.029-8.777-9.029-.511 0-1.012.047-1.5.133A4.962 4.962 0 0 0 5.89.4C3.079.4.8 2.744.8 5.637c0 .965.256 1.871.699 2.648a9.348 9.348 0 0 0-.178 1.815c0 4.986 3.93 9.029 8.775 9.029.551 0 1.087-.051 1.607-.15a4.956 4.956 0 0 0 2.406.621c2.811 0 5.09-2.344 5.09-5.236a5.328 5.328 0 0 0-.528-2.327zm-4.072 2.379c-.406.59-1.006 1.059-1.783 1.391-.769.33-1.692.496-2.742.496-1.26 0-2.317-.227-3.143-.678a4.161 4.161 0 0 1-1.445-1.318c-.372-.555-.561-1.104-.561-1.633 0-.33.123-.617.365-.852.24-.232.549-.352.916-.352.301 0 .562.094.773.277.202.176.375.438.514.773.156.367.326.676.505.92.172.234.42.432.735.586.318.154.748.232 1.275.232.725 0 1.32-.158 1.768-.473.438-.309.65-.676.65-1.127 0-.357-.111-.637-.34-.857a2.409 2.409 0 0 0-.936-.531 18.034 18.034 0 0 0-1.611-.41c-.91-.201-1.683-.439-2.299-.707-.63-.275-1.137-.658-1.508-1.137-.375-.483-.567-1.092-.567-1.807 0-.682.2-1.297.596-1.828.393-.525.965-.935 1.703-1.217.728-.277 1.596-.418 2.576-.418.783 0 1.473.094 2.047.277.578.186 1.066.436 1.449.744.387.311.674.643.854.986.182.35.275.695.275 1.031 0 .322-.121.615-.361.871-.24.258-.543.387-.9.387-.324 0-.58-.082-.756-.242-.164-.148-.336-.383-.524-.717-.219-.428-.484-.766-.788-1.002-.295-.232-.788-.35-1.466-.35-.629 0-1.141.131-1.519.387-.368.249-.545.532-.545.866 0 .207.058.379.176.525.125.158.301.295.523.41.23.12.467.214.705.282.244.07.654.172 1.215.307.711.156 1.363.332 1.939.521a6.22 6.22 0 0 1 1.502.705c.42.283.754.645.989 1.076.237.434.357.969.357 1.59a3.49 3.49 0 0 1-.613 2.016z"/></svg>