<svg xmlns="http://www.w3.org/2000/svg" viewBox="0 0 20 20"><path d="M14.201 9.194c1.389 1.883 1.818 3.517 1.559 3.777-.26.258-1.893-.17-3.778-1.559l-5.526 5.527c4.186 1.838 9.627-2.018 10.605-2.996.925-.922.097-3.309-1.856-5.754l-1.004 1.005zM8.667 7.941c-1.099-1.658-1.431-3.023-1.194-3.26.233-.234 1.6.096 3.257 1.197l1.023-1.025C9.489 3.179 7.358 2.519 6.496 3.384c-.928.926-4.448 5.877-3.231 9.957l5.402-5.4zm9.854-6.463a.999.999 0 0 0-1.414 0L1.478 17.108a.999.999 0 1 0 1.414 1.414l15.629-15.63a.999.999 0 0 0 0-1.414z"/></svg>