<svg xmlns="http://www.w3.org/2000/svg" viewBox="0 0 20 20"><path d="M20 6.009h-2.829C15.211 4.675 12.813 4 10 4s-5.212.675-7.171 2.009H0c.428.42.827 1.34.993 2.04A4.954 4.954 0 0 0 0 11.008c0 2.757 2.243 5 5 5a4.97 4.97 0 0 0 3.423-1.375L10 17l1.577-2.366A4.97 4.97 0 0 0 15 16.01c2.757 0 5-2.243 5-5 0-1.112-.377-2.13-.993-2.96.166-.7.565-1.62.993-2.04zm-15 8.4c-1.875 0-3.4-1.525-3.4-3.4s1.525-3.4 3.4-3.4 3.4 1.525 3.4 3.4-1.525 3.4-3.4 3.4zm5-3.4a5.008 5.008 0 0 0-4.009-4.9C7.195 5.704 8.53 5.5 10 5.5s2.805.204 4.009.61A5.008 5.008 0 0 0 10 11.008zm5 3.4c-1.875 0-3.4-1.525-3.4-3.4s1.525-3.4 3.4-3.4 3.4 1.525 3.4 3.4-1.525 3.4-3.4 3.4zM5 8.86c-1.185 0-2.15.964-2.15 2.15s.965 2.15 2.15 2.15 2.15-.964 2.15-2.15S6.185 8.86 5 8.86zm0 2.791a.65.65 0 1 1 0-1.3.65.65 0 0 1 0 1.3zM15 8.86c-1.185 0-2.15.964-2.15 2.15s.965 2.15 2.15 2.15 2.15-.964 2.15-2.15-.965-2.15-2.15-2.15zm0 2.791a.65.65 0 1 1 0-1.3.65.65 0 0 1 0 1.3z"/></svg>