<svg xmlns="http://www.w3.org/2000/svg" viewBox="0 0 20 20"><path d="M15.989 19.129c0-2.246-2.187-3.389-4.317-4.307-2.123-.914-2.801-1.684-2.801-3.334 0-.989.648-.667.932-2.481.12-.752.692-.012.802-1.729 0-.684-.313-.854-.313-.854s.159-1.013.221-1.793c.064-.817-.398-2.56-2.301-3.095-.332-.341-.557-.882.467-1.424-2.24-.104-2.761 1.068-3.954 1.93-1.015.756-1.289 1.953-1.24 2.59.065.78.223 1.793.223 1.793s-.314.17-.314.854c.11 1.718.684.977.803 1.729.284 1.814.933 1.492.933 2.481 0 1.65-.212 2.21-2.336 3.124C.663 15.53 0 17 .011 19.129.014 19.766 0 20 0 20h16s-.011-.234-.011-.871zm2.539-5.764c-1.135-.457-1.605-1.002-1.605-2.066 0-.641.418-.432.602-1.603.077-.484.447-.008.518-1.115 0-.441-.202-.551-.202-.551s.103-.656.143-1.159c.05-.627-.364-2.247-2.268-2.247-1.903 0-2.318 1.62-2.269 2.247.042.502.144 1.159.144 1.159s-.202.109-.202.551c.071 1.107.441.631.518 1.115.184 1.172.602.963.602 1.603 0 1.064-.438 1.562-1.809 2.152-.069.029-.12.068-.183.102 1.64.712 4.226 1.941 4.838 4.447H20v-2.318c0-1-.273-1.834-1.472-2.317z"/></svg>