<svg xmlns="http://www.w3.org/2000/svg" viewBox="0 0 20 20"><path d="M19 17V3c0-1.1-.903-2-2.005-2H3.005C1.855 1 1 1.853 1 3v14c0 1.148.855 2 2.005 2h13.99A2.008 2.008 0 0 0 19 17zm-3.816-5.393s1.132 1.117 1.411 1.635c.008.011.011.021.014.025.113.19.142.34.085.45-.094.183-.414.275-.523.283h-1.999c-.14 0-.43-.036-.782-.279-.27-.188-.537-.499-.797-.802-.388-.45-.724-.84-1.062-.84a.383.383 0 0 0-.126.021c-.257.082-.583.447-.583 1.422 0 .305-.24.479-.41.479h-.916c-.312 0-1.937-.109-3.376-1.628-1.766-1.86-3.352-5.591-3.366-5.624-.1-.241.107-.372.332-.372h2.02c.271 0 .358.164.42.311.07.167.334.841.766 1.599.703 1.233 1.136 1.735 1.481 1.735a.378.378 0 0 0 .184-.049c.451-.249.367-1.857.347-2.189 0-.063-.001-.719-.231-1.034-.166-.228-.447-.315-.617-.348a.738.738 0 0 1 .266-.226C8.031 6.022 8.588 6 9.142 6h.308c.601.008.757.047.974.102.439.105.448.39.409 1.36-.011.276-.023.589-.023.956 0 .079-.003.166-.003.256-.014.496-.03 1.057.32 1.287a.289.289 0 0 0 .151.044c.122 0 .487 0 1.476-1.697.435-.749.77-1.633.793-1.699a.528.528 0 0 1 .148-.183.347.347 0 0 1 .166-.039h2.375c.26 0 .436.039.469.138.057.159-.011.644-1.096 2.11l-.483.64c-.984 1.288-.984 1.354.058 2.332z"/></svg>