<svg xmlns="http://www.w3.org/2000/svg" viewBox="0 0 20 20"><path d="M10 .4C4.698.4.4 4.698.4 10s4.298 9.6 9.6 9.6 9.6-4.298 9.6-9.6S15.302.4 10 .4zm3.692 10.831s.849.838 1.058 1.227c.006.008.009.016.011.02.085.143.105.254.063.337-.07.138-.31.206-.392.212h-1.5c-.104 0-.322-.027-.586-.209-.203-.142-.403-.375-.598-.602-.291-.338-.543-.63-.797-.63a.305.305 0 0 0-.095.015c-.192.062-.438.336-.438 1.066 0 .228-.18.359-.307.359h-.687c-.234 0-1.453-.082-2.533-1.221-1.322-1.395-2.512-4.193-2.522-4.219-.075-.181.08-.278.249-.278h1.515c.202 0 .268.123.314.232.054.127.252.632.577 1.2.527.926.85 1.302 1.109 1.302a.3.3 0 0 0 .139-.036c.338-.188.275-1.393.26-1.643 0-.047-.001-.539-.174-.775-.124-.171-.335-.236-.463-.26a.55.55 0 0 1 .199-.169c.232-.116.65-.133 1.065-.133h.231c.45.006.566.035.729.076.33.079.337.292.308 1.021-.009.207-.018.441-.018.717 0 .06-.003.124-.003.192-.01.371-.022.792.24.965a.216.216 0 0 0 .114.033c.091 0 .365 0 1.107-1.273a9.718 9.718 0 0 0 .595-1.274c.015-.026.059-.106.111-.137a.266.266 0 0 1 .124-.029h1.781c.194 0 .327.029.352.104.044.119-.008.482-.821 1.583l-.363.479c-.737.966-.737 1.015.046 1.748z"/></svg>